<svg xmlns="http://www.w3.org/2000/svg" xmlns:xlink="http://www.w3.org/1999/xlink" viewBox="0 0 2818 2800"><defs><style>.cls-1{isolation:isolate;}.cls-2{fill:#f4f7fa;}.cls-3{fill:#bfc8d6;}.cls-12,.cls-4{fill:#d8dee8;}.cls-5{fill:url(#linear-gradient);}.cls-14,.cls-52,.cls-6{fill:#fff;}.cls-7{opacity:0.55;}.cls-8{fill:url(#linear-gradient-2);}.cls-9{fill:url(#linear-gradient-3);}.cls-10{opacity:0.2;}.cls-10,.cls-12,.cls-27,.cls-34,.cls-43{mix-blend-mode:multiply;}.cls-11{fill:url(#linear-gradient-4);}.cls-12,.cls-27,.cls-34,.cls-43{opacity:0.3;}.cls-13{fill:url(#linear-gradient-5);}.cls-14{opacity:0.16;mix-blend-mode:screen;}.cls-15{fill:#b7c0ce;}.cls-16{fill:url(#linear-gradient-6);}.cls-17{fill:url(#linear-gradient-7);}.cls-18{fill:url(#linear-gradient-8);}.cls-19{fill:url(#linear-gradient-9);}.cls-20{fill:url(#linear-gradient-10);}.cls-21{fill:url(#linear-gradient-11);}.cls-22{fill:url(#linear-gradient-12);}.cls-23{fill:url(#linear-gradient-13);}.cls-24{fill:url(#linear-gradient-14);}.cls-25{fill:url(#linear-gradient-15);}.cls-26{fill:url(#linear-gradient-16);}.cls-27{fill:url(#linear-gradient-17);}.cls-28{fill:url(#linear-gradient-18);}.cls-29{fill:url(#linear-gradient-19);}.cls-30{fill:url(#linear-gradient-20);}.cls-31{fill:#c47eb7;}.cls-32{fill:url(#linear-gradient-21);}.cls-33{fill:url(#linear-gradient-22);}.cls-34{fill:url(#linear-gradient-23);}.cls-35{fill:url(#linear-gradient-24);}.cls-36{fill:url(#linear-gradient-25);}.cls-37{fill:url(#linear-gradient-26);}.cls-38{fill:url(#linear-gradient-27);}.cls-39{fill:url(#linear-gradient-28);}.cls-40{fill:url(#linear-gradient-29);}.cls-41{fill:url(#linear-gradient-30);}.cls-42{fill:url(#linear-gradient-31);}.cls-44{fill:url(#linear-gradient-32);}.cls-45{fill:url(#linear-gradient-33);}.cls-46{fill:url(#linear-gradient-34);}.cls-47{fill:url(#linear-gradient-35);}.cls-48{fill:url(#linear-gradient-36);}.cls-49{fill:url(#linear-gradient-37);}.cls-50{fill:url(#linear-gradient-38);}.cls-51{fill:url(#linear-gradient-39);}.cls-52{opacity:0.5;}.cls-53{fill:url(#linear-gradient-40);}</style><linearGradient id="linear-gradient" x1="1137.8" y1="605.98" x2="1438.73" y2="2866.36" gradientUnits="userSpaceOnUse"><stop offset="0" stop-color="#ff9085"/><stop offset="1" stop-color="#fb6fbb"/></linearGradient><linearGradient id="linear-gradient-2" x1="837.38" y1="1187.29" x2="1419.08" y2="1187.29" gradientTransform="matrix(1.01, 0, 0.1, 0.99, -34.63, 4.26)" gradientUnits="userSpaceOnUse"><stop offset="0" stop-color="#e38ddd"/><stop offset="1" stop-color="#9571f6"/></linearGradient><linearGradient id="linear-gradient-3" x1="772.65" y1="1145.56" x2="1302.35" y2="1145.56" gradientTransform="matrix(1.03, 0, 0.2, 0.97, -69.89, 9.78)" gradientUnits="userSpaceOnUse"><stop offset="0" stop-color="#444b8c"/><stop offset="1" stop-color="#26264f"/></linearGradient><linearGradient id="linear-gradient-4" x1="749.16" y1="1124.03" x2="1459.54" y2="1124.03" xlink:href="#linear-gradient-2"/><linearGradient id="linear-gradient-5" x1="-3753" y1="3423.69" x2="-2627.17" y2="3423.69" gradientTransform="matrix(-0.95, 0.32, 0.32, 0.95, -1387.45, -98.68)" xlink:href="#linear-gradient-2"/><linearGradient id="linear-gradient-6" x1="2511.94" y1="2648.27" x2="2431.76" y2="2543.79" gradientUnits="userSpaceOnUse"><stop offset="0" stop-color="#311944"/><stop offset="1" stop-color="#893976"/></linearGradient><linearGradient id="linear-gradient-7" x1="2329.14" y1="2414.89" x2="2432.17" y2="2141.78" xlink:href="#linear-gradient-6"/><linearGradient id="linear-gradient-8" x1="2271.52" y1="2463.6" x2="2269.95" y2="2597.26" xlink:href="#linear-gradient-6"/><linearGradient id="linear-gradient-9" x1="1616.32" y1="2128.38" x2="2051.73" y2="2128.38" gradientUnits="userSpaceOnUse"><stop offset="0" stop-color="#ffc444"/><stop offset="1" stop-color="#f36f56"/></linearGradient><linearGradient id="linear-gradient-10" x1="1970.84" y1="3005.41" x2="2072.65" y2="3005.41" gradientUnits="userSpaceOnUse"><stop offset="0" stop-color="#311944"/><stop offset="1" stop-color="#6b3976"/></linearGradient><linearGradient id="linear-gradient-11" x1="2015.48" y1="3064.26" x2="2185.55" y2="2554.07" gradientUnits="userSpaceOnUse"><stop offset="0" stop-color="#311944"/><stop offset="1" stop-color="#a03976"/></linearGradient><linearGradient id="linear-gradient-12" x1="1772.15" y1="2936.32" x2="1873.96" y2="2936.32" xlink:href="#linear-gradient-10"/><linearGradient id="linear-gradient-13" x1="1816.79" y1="2995.17" x2="1986.86" y2="2484.98" xlink:href="#linear-gradient-11"/><linearGradient id="linear-gradient-14" x1="1992.25" y1="2932.74" x2="2113" y2="2550.58" gradientUnits="userSpaceOnUse"><stop offset="0" stop-color="#444b8c"/><stop offset="1" stop-color="#3e4177"/></linearGradient><linearGradient id="linear-gradient-15" x1="2005.08" y1="2563.54" x2="2297.67" y2="2623.26" xlink:href="#linear-gradient-14"/><linearGradient id="linear-gradient-16" x1="1893.79" y1="2133.49" x2="2516.46" y2="2133.49" xlink:href="#linear-gradient-9"/><linearGradient id="linear-gradient-17" x1="2030.69" y1="2275.76" x2="2493.14" y2="2275.76" xlink:href="#linear-gradient-9"/><linearGradient id="linear-gradient-18" x1="2038.55" y1="1840.37" x2="2093.82" y2="1916.11" gradientUnits="userSpaceOnUse"><stop offset="0" stop-color="#311944"/><stop offset="0.22" stop-color="#49204e"/><stop offset="0.31" stop-color="#532353"/><stop offset="1" stop-color="#a03976"/></linearGradient><linearGradient id="linear-gradient-19" x1="1125.8" y1="2252.18" x2="1042.23" y2="2039.94" gradientTransform="translate(349.8 141.34) rotate(-17.58)" xlink:href="#linear-gradient-3"/><linearGradient id="linear-gradient-20" x1="2156.09" y1="1732.47" x2="1926.82" y2="1916.71" xlink:href="#linear-gradient-18"/><linearGradient id="linear-gradient-21" x1="1354.66" y1="2131.59" x2="1893.79" y2="2131.59" gradientUnits="userSpaceOnUse"><stop offset="0" stop-color="#aa80f9"/><stop offset="1" stop-color="#6165d7"/></linearGradient><linearGradient id="linear-gradient-22" x1="1349.1" y1="2133.49" x2="1883.54" y2="2133.49" xlink:href="#linear-gradient-21"/><linearGradient id="linear-gradient-23" x1="1359.13" y1="2256.46" x2="1883.54" y2="2256.46" xlink:href="#linear-gradient-21"/><linearGradient id="linear-gradient-24" x1="1664.77" y1="2376.67" x2="1645.63" y2="2279.64" xlink:href="#linear-gradient-21"/><linearGradient id="linear-gradient-25" x1="1715.65" y1="2327.2" x2="1572.35" y2="2413.18" xlink:href="#linear-gradient-21"/><linearGradient id="linear-gradient-26" x1="1607.78" y1="2270.18" x2="1501.4" y2="2230.56" xlink:href="#linear-gradient-21"/><linearGradient id="linear-gradient-27" x1="1485.91" y1="2264.79" x2="1642.27" y2="2264.79" xlink:href="#linear-gradient-21"/><linearGradient id="linear-gradient-28" x1="1989.56" y1="2100.08" x2="2420.68" y2="2100.08" xlink:href="#linear-gradient-9"/><linearGradient id="linear-gradient-29" x1="1965.73" y1="2266.91" x2="1935.7" y2="2367.22" xlink:href="#linear-gradient-18"/><linearGradient id="linear-gradient-30" x1="2159.44" y1="1035.4" x2="2465.08" y2="1648.76" xlink:href="#linear-gradient-9"/><linearGradient id="linear-gradient-31" x1="2255.21" y1="1280.84" x2="2550.64" y2="1828.77" xlink:href="#linear-gradient-9"/><linearGradient id="linear-gradient-32" x1="2169.04" y1="1318.82" x2="2453.17" y2="1888.98" xlink:href="#linear-gradient-9"/><linearGradient id="linear-gradient-33" x1="2380.7" y1="547.96" x2="2713.51" y2="1215.84" xlink:href="#linear-gradient-9"/><linearGradient id="linear-gradient-34" x1="2481.58" y1="823.5" x2="2804.85" y2="1423.07" xlink:href="#linear-gradient-9"/><linearGradient id="linear-gradient-35" x1="2390.84" y1="858.28" x2="2705.95" y2="1490.64" xlink:href="#linear-gradient-9"/><linearGradient id="linear-gradient-36" x1="1867.83" y1="155.67" x2="2160.79" y2="743.58" xlink:href="#linear-gradient-9"/><linearGradient id="linear-gradient-37" x1="2040.11" y1="541.83" x2="2324.67" y2="1069.59" xlink:href="#linear-gradient-9"/><linearGradient id="linear-gradient-38" x1="1961.97" y1="576.9" x2="2238.41" y2="1131.65" xlink:href="#linear-gradient-9"/><linearGradient id="linear-gradient-39" x1="989.18" y1="2487.43" x2="673.84" y2="3089.14" xlink:href="#linear-gradient-21"/><linearGradient id="linear-gradient-40" x1="848.35" y1="2786.5" x2="507.35" y2="3195.3" gradientTransform="matrix(1, 0, 0, 1, 0, 0)" xlink:href="#linear-gradient-2"/></defs><title>about-1</title><g class="cls-1"><g id="Illustration"><g id="Chatbot_app_development" data-name="Chatbot app development"><path class="cls-2" d="M2925,2863.08c-73.35,75.6-139,120.05-189.23,153.6-490.07,327.23-1050.28,232.91-1223.48,200.68-279.44-52-515.33-88.7-718-271.81-460.52-416.06-438.12-1284-86.22-1821.66,41.72-63.75,393.08-584.58,954.5-658,13.73-1.79,24-2.81,33-3.76,86.85-9.2,625.05-57.73,1063.89,309.93,62.82,52.63,163.91,147.56,257.66,292.34C3359.8,1593.83,3360.88,2413.74,2925,2863.08Z" transform="translate(-446 -455)"/><path class="cls-3" d="M1706.32,522.7l271,2230.77c4.07,33.55-18.34,63.18-49.85,65.83L866.24,2920.23c-63.22,2.84-98-31.84-102.07-66.45L491.76,553.09c-4.05-34.2,26.38-66.59,89.24-69.19l1060.65-20.16C1673.21,463,1702.29,489.53,1706.32,522.7Z" transform="translate(-446 -455)"/><path class="cls-4" d="M1755.09,516.93l273,2244.68c4.1,33.76-18.44,63.57-50.15,66.25L876,2920.74c-33.58,2.83-64.47-23.35-68.59-58.18L533.05,547.5c-4.08-34.41,20.13-63.21,53.74-64L1690,457.61C1721.77,456.86,1751,483.56,1755.09,516.93Z" transform="translate(-446 -455)"/><path class="cls-5" d="M1734.32,641.69l252.73,2079.65c3.83,31.51-17.24,59.31-46.86,61.77L904,2869.19c-31.26,2.59-60-21.83-63.87-54.27L586.19,674c-3.8-32.09,18.72-59,50-59.87l1037.33-27.72C1703.19,585.65,1730.53,610.51,1734.32,641.69Z" transform="translate(-446 -455)"/><path class="cls-6" d="M1174.73,538.27c1.41,11.74-6.62,21.5-17.93,21.79s-21.66-9-23.07-20.76,6.63-21.51,18-21.78S1173.32,526.53,1174.73,538.27Z" transform="translate(-446 -455)"/><g class="cls-7"><polygon class="cls-6" points="484.37 1172.38 382.48 1174.23 375.91 1124.25 477.75 1122.41 484.37 1172.38"/><polygon class="cls-6" points="1056.57 1162.02 550.24 1171.19 543.6 1121.22 1049.73 1112.06 1056.57 1162.02"/><polygon class="cls-6" points="663.53 1254.79 561.59 1256.64 554.95 1206.6 656.85 1204.75 663.53 1254.79"/><polygon class="cls-6" points="1236.05 1244.39 729.44 1253.59 722.73 1203.56 1229.14 1194.37 1236.05 1244.39"/><polygon class="cls-6" points="674.97 1340.35 572.96 1342.2 566.31 1292.1 668.27 1290.24 674.97 1340.35"/><polygon class="cls-6" points="1247.88 1329.93 740.93 1339.15 734.2 1289.05 1240.95 1279.84 1247.88 1329.93"/><polygon class="cls-6" points="518.34 1429.09 416.25 1430.94 409.65 1380.77 511.7 1378.91 518.34 1429.09"/><polygon class="cls-6" points="1091.71 1418.64 584.35 1427.88 577.68 1377.71 1084.84 1368.48 1091.71 1418.64"/><polygon class="cls-6" points="697.9 1511.82 595.75 1513.68 589.07 1463.44 691.18 1461.58 697.9 1511.82"/><polygon class="cls-6" points="1271.58 1501.35 763.94 1510.61 757.2 1460.37 1264.63 1451.12 1271.58 1501.35"/><polygon class="cls-6" points="709.38 1597.73 607.17 1599.6 600.48 1549.28 702.65 1547.42 709.38 1597.73"/><polygon class="cls-6" points="1283.45 1587.23 775.47 1596.52 768.72 1546.21 1276.5 1536.94 1283.45 1587.23"/></g><ellipse class="cls-6" cx="1212.46" cy="1109.72" rx="304.91" ry="380.89" transform="translate(-525.26 1671.08) rotate(-80.66)"/><path class="cls-8" d="M1508.91,1066.34l7,76.87c6.64,72.72-43.62,131.79-112.25,131.92l-46.57.09A113.12,113.12,0,0,1,1340,1302.5c-19.79,23.28-48.76,37.7-82.21,37.76l-48.46.1c-45.09.08-86.83-26-111.21-64.65l-34.57.07c-68.64.13-129.68-58.73-136.32-131.45l-7-76.87c-3-32.85,19.73-59.53,50.73-59.59l476.45-.9C1478.35,1006.91,1505.91,1033.49,1508.91,1066.34Z" transform="translate(-446 -455)"/><path class="cls-9" d="M1407.37,1214.88l-362.31.69c-48.81.09-92.2-41.75-96.92-93.45L945,1088c-3-32.85,19.71-59.53,50.72-59.59l426.75-.81c31-.06,58.58,26.52,61.58,59.38l3.12,34.13C1491.91,1172.8,1456.17,1214.79,1407.37,1214.88Z" transform="translate(-446 -455)"/><path class="cls-6" d="M1143.27,1132.58a29.32,29.32,0,0,0,4-17.4c-1.87-20.47-23.86-37-49.11-37s-44.22,16.69-42.35,37.16a34.15,34.15,0,0,0,7.17,17.37Z" transform="translate(-446 -455)"/><path class="cls-6" d="M1373.59,1132.14a29.39,29.39,0,0,0,4-17.4c-1.87-20.47-23.86-37-49.12-37s-44.21,16.68-42.34,37.15a34.16,34.16,0,0,0,7.16,17.38Z" transform="translate(-446 -455)"/><g class="cls-10"><path class="cls-11" d="M1443.46,1183c-133.09-8.88-282.41-69.53-330-212.63-17.76-57.43-9.78-114.9,14.77-164.27-180,22.5-307.89,150.31-293.83,304.34,15.49,169.64,197.3,306.83,406.09,306.44,151.72-.29,275.91-73.17,326.54-178.06-22.38-1.31-45.36-7.33-68.49-19.36C1480.46,1210.34,1463.86,1186,1443.46,1183Z" transform="translate(-446 -455)"/></g><path class="cls-6" d="M1254.19,1431.33l-2.2-24.09c193.15-.36,338.15-154,337.3-357.47l22.84,2.17c.43,103.15-35.66,198.75-101.64,269.19C1444.1,1392,1353.08,1431.14,1254.19,1431.33Z" transform="translate(-446 -455)"/><path class="cls-6" d="M1239.7,1419.28h0c-4.69-20.31,6.83-39.23,25.73-42.27l99.4-16c18.9-3,38,11,42.71,31.26h0c4.69,20.31-6.83,39.24-25.73,42.28l-99.41,16C1263.5,1453.59,1244.38,1439.59,1239.7,1419.28Z" transform="translate(-446 -455)"/><path class="cls-6" d="M847,1091.29h-29.2c-2.3-13.22-4.06-26.4-5.23-39.18h6.35c7.18-90,42.42-172.37,101.1-235,66.93-71.47,158.68-110.93,258.34-111.12S1377,744.84,1457,816a477.59,477.59,0,0,1,144,234.58l6.34,0c1.17,12.78,1.81,26,1.93,39.18l-29.19.13c-36-201.56-207.45-353.28-398.88-352.91S846.13,889.67,847,1091.29Z" transform="translate(-446 -455)"/><path class="cls-6" d="M844.43,1225.84h0c-34,.06-64.27-29.11-67.56-65.15l-17.3-189.57c-3.29-36,21.62-65.31,55.64-65.38h0c34-.06,64.27,29.11,67.56,65.15l17.3,189.57C903.36,1196.5,878.45,1225.77,844.43,1225.84Z" transform="translate(-446 -455)"/><path class="cls-6" d="M1616.53,1224.37h0c-34,.06-64.26-29.1-67.56-65.14l-17.3-189.57c-3.29-36,21.62-65.32,55.64-65.38h0c34-.07,64.27,29.1,67.56,65.14l17.3,189.57C1675.47,1195,1650.55,1224.3,1616.53,1224.37Z" transform="translate(-446 -455)"/><path class="cls-4" d="M2581.14,2781.13c-56.11,49.61-223.48-32.49-323.58-133.17-38.73-38.95-77.25-77.69-90.95-139.63-23.11-104.54,53.92-142,38.35-230.16-23-130.13-207-139-217.55-254.92-7.77-85.29,89.33-107.52,85.15-205.22-4.84-113.33-138.52-154-118.29-232,11.76-45.25,60-43.44,125.92-138.57,25.81-37.22,38.71-55.83,41.94-79.74,11.32-83.84-87.64-118.4-98.55-201.51-12-91.48,89.89-186.9,170.07-227.94C2337.3,864.8,2507.57,916.53,2611.4,997c22.24,17.25,165.27,131.83,158.66,295-4.81,118.68-86.9,217.5-100.21,233.53-51.87,62.44-80.42,60.36-85.18,93.5-13.75,95.78,221.54,135.72,258.57,302,15.12,67.88-5.08,146.6-43.85,199.68-62.68,85.81-151.12,73.42-165.92,133.88-19.14,78.23,120.39,133.67,103.26,222.54-12.12,62.87-86.54,58.87-126.64,149.08C2574.5,2706.32,2614.37,2751.75,2581.14,2781.13Z" transform="translate(-446 -455)"/><path class="cls-12" d="M2480,2694.53c27.59-21-32.49-92.28-54.14-257.09-23.65-180,31.26-222.43,12.45-387.4-21.49-188.34-97.3-170.28-108.62-322.73-15.34-206.62,122.34-261.19,107.4-506.86-4.48-73.69-12-173-84.41-216-62.84-37.3-166.31-27.39-217.92,36.62-2.16,2.68-44.71,57.19-30.91,124.88,16.94,83,99,89.2,106.08,159.3,3.73,36.72-19.6,70.57-66.27,138.26-67.12,97.36-98.87,97.06-102.28,135.71-7.69,87.33,151.53,121.73,152.27,217.28.63,82-116.35,105.45-112.47,180,4.68,90,177.07,94.15,211.84,210.91,29.94,100.53-80.84,154.56-60.86,273.66C2255.71,2621.71,2440.14,2724.88,2480,2694.53Z" transform="translate(-446 -455)"/><path class="cls-13" d="M2645.09,2924.63c-46.25-.32-124.1-.86-195.48-51.23-129.77-91.58-153.88-288.42-123.28-427.28,26.28-119.27,111.41-216.95,281.67-412.33,160.34-184,223.51-218.44,217.65-300-8.36-116.26-145.2-163.89-134.61-301,1.27-16.45,5.63-73,46.31-105.81,69.64-56.25,196.82-3.75,263,43.19,63.82,45.28,145.77,138.51,134.28,237-8.32,71.35-58.62,84.83-51.9,146.18,6.77,61.72,59.74,66.69,110.29,156.55,20.2,35.9,60.74,108,46.45,184.59-18.48,99.07-111.89,116.08-107.12,192.49,3.45,55.2,53.35,64.37,70.17,124.47,22.15,79.13-37.35,159.65-87.76,226C3055.4,2715.59,2895.27,2926.37,2645.09,2924.63Z" transform="translate(-446 -455)"/><path class="cls-14" d="M2777.66,1351.42c-32.91,43.8,134.17,135.39,156.88,321.48,24.43,200.23-133.19,387.7-206,474.34-124.28,147.82-197.44,149.29-262.07,291-25.57,56.08-78.86,172.93-28.64,294.13,4.66,11.26,58.55,136,177.75,164.18,135.2,31.93,251.62-84.71,351.94-185.21,60.62-60.74,181.71-182.05,144.61-259.27-22.68-47.2-99.26-67.05-155.08-61.68-79.68,7.65-128,67.72-138.94,57-9.85-9.62,19.86-67.61,69.65-119.72,99.59-104.24,177.66-78.43,247.63-167.94,8.48-10.85,74.43-97.78,46.53-188-16.08-52-63.8-106.52-109.07-103.3-51.19,3.65-77.14,79.55-91.46,73-13.69-6.24,1.72-79.42,27.51-149.52,37.9-103,66.64-113.54,73.61-173.14,10.62-90.93-44.88-164-53-174.35C2953.32,1347.16,2805.8,1314,2777.66,1351.42Z" transform="translate(-446 -455)"/><ellipse class="cls-15" cx="1848.83" cy="2438.52" rx="196.68" ry="80.27"/><path class="cls-6" d="M2491.51,2884.1c0,41.85-88.05,75.78-196.68,75.78s-196.67-33.93-196.67-75.78,88.05-110.32,196.67-110.32S2491.51,2842.26,2491.51,2884.1Z" transform="translate(-446 -455)"/><path class="cls-4" d="M2491.51,2884.1c0-41.84-88.05-110.32-196.68-110.32a266.89,266.89,0,0,0-130.63,34.45,28.48,28.48,0,0,0-3.11,15c2.26,23.54,40.66,38,62.7,42.79,55.51,12,82.61-21.17,128.38-19.9,28.3.78,67.51,15,114,75.2C2482.28,2910.3,2491.51,2897.62,2491.51,2884.1Z" transform="translate(-446 -455)"/><path class="cls-6" d="M2305.61,2811.79a44.56,44.56,0,0,1-22.09.13,14.21,14.21,0,0,1-10.55-13.83V2576.31h43.73v221.51A14.47,14.47,0,0,1,2305.61,2811.79Z" transform="translate(-446 -455)"/><path class="cls-16" d="M2063.75,2483l66.81-42.24c2.78-15.77,34.27-180.82,162.13-232.65,52-21.08,107.94-18.58,138.65-17.21,61.3,2.74,105,4.69,126,33.93,27,37.55-18.29,71.6-8.91,179,3.83,43.79,13.55,63.25,1.44,92.26-14.51,34.76-48.16,54-74.33,64.86-31.28,18.17-85.74,44.05-157.67,50.35-121.15,10.62-211.61-41.35-242.71-61.24A40,40,0,0,1,2048,2520,35.31,35.31,0,0,1,2063.75,2483Z" transform="translate(-446 -455)"/><path class="cls-17" d="M2444.81,2199.71c45.34,1.34,73.51.81,89.09,21.05,16.36,21.25-.17,39.36-3.24,115-2.79,69,9.37,96.24-12.92,134.47,0,0-11.32,19.42-29.2,34-63.19,51.55-226.2,50.93-294.81-56.7-54.73-85.87-31.91-212.44,32.4-254.32C2257.64,2172.71,2264.87,2194.38,2444.81,2199.71Z" transform="translate(-446 -455)"/><path class="cls-18" d="M2058.89,2445.05l66.81-42.23s179-58.84,344.53,24.12a55,55,0,0,1,30.08,49.21,39.44,39.44,0,0,1-24.24,36.4c-28.88,19.72-85.27,52.28-163,60.81-123.58,13.54-215.53-43.05-242.71-61.25a40,40,0,0,1-27.17-30.06A35.31,35.31,0,0,1,2058.89,2445.05Z" transform="translate(-446 -455)"/><path class="cls-19" d="M1616.32,2207.89s284.73,89.37,277.6-238.6l157.73,46.65s15.3,380.73-377.74,240.52Z" transform="translate(-446 -455)"/><path class="cls-20" d="M2037.06,2973.11h25.74c6.37,10.27,13.44,24.88,7.78,34.27-3.93,6.51-10.54,4.81-29.13,10.71-26,8.24-32.26,17.64-54.5,19.21-8.15.58-14.11,1-15.7-1.91C1966.67,3027.06,2002,2998.72,2037.06,2973.11Z" transform="translate(-446 -455)"/><path class="cls-21" d="M2041,2981.72c2.17.88,4.33,1.85,6.44,2.61a11,11,0,0,0,14.61-10.5c0-.24,0-.49,0-.74a88.79,88.79,0,0,1,4.19-25.88l-28.41-1.32c2.18,12.58,1.42,21.55-.59,28.08A6.38,6.38,0,0,0,2041,2981.72Z" transform="translate(-446 -455)"/><path class="cls-22" d="M1838.36,2904h25.75c6.37,10.27,13.44,24.88,7.78,34.27-3.93,6.51-10.54,4.81-29.13,10.71-26,8.25-32.26,17.64-54.5,19.21-8.16.58-14.11,1-15.71-1.9C1768,2958,1803.27,2929.64,1838.36,2904Z" transform="translate(-446 -455)"/><path class="cls-23" d="M1842.34,2912.63c2.18.88,4.34,1.85,6.45,2.61a11,11,0,0,0,14.61-10.5c0-.24,0-.49,0-.74a88.79,88.79,0,0,1,4.19-25.88l-28.41-1.32c2.17,12.58,1.42,21.55-.59,28.08A6.39,6.39,0,0,0,1842.34,2912.63Z" transform="translate(-446 -455)"/><path class="cls-24" d="M1838.64,2890.76c-19.37-98.39-17.19-179.67-11.94-233.87,10.15-104.83,15.53-160.36,57.61-211.75,39.56-48.32,76.36-50,164.4-131.81a912.58,912.58,0,0,0,64.61-66.47c132-38.72,253.79-23,307.52,47.77,6.21,8.18,21.75,25.93,24.76,52.1,6.78,59-51.22,130.11-116.32,145-82.73,18.86-130.72-66.09-204-37.82-20.5,7.9-37.88,27.49-72.65,66.68a554.4,554.4,0,0,0-78.49,114.24c-28,54.8-49.25,95.25-52.34,147.68-.72,12.22-1.16,36.9-15.46,63.51-11,20.43-25.87,34.05-36.94,42.47Z" transform="translate(-446 -455)"/><path class="cls-25" d="M2018.85,2942.3c8,14.87,23.65,23.66,57.72,17.91,48.13-54.65,64-103.17,69.67-137.34,12.17-73.79-18.41-111.73,10-171.17,18.45-38.68,49.55-60.65,75.56-79,62.7-44.3,89-27,142.62-67.83,20.11-15.31,68.26-52,74.73-112.36,5.62-52.48-23.57-91.75-28.26-97.86-37.72-49.15-108.51-69.1-179.06-51a437.87,437.87,0,0,1-59.72,105.49c-40.21,52.34-66.37,61.31-107.48,113.46-19.2,24.36-52,66-69.3,124.77-10,34.19-11.36,62.24-.36,199.67C2008.36,2830.07,2012.9,2882.47,2018.85,2942.3Z" transform="translate(-446 -455)"/><path class="cls-26" d="M1893.92,1969.29c6.35-82.2,231.19-189.55,409.42-114.63,211.09,88.73,213.27,372.82,213.11,393.28-.66,87.75-29.37,187.46-61.61,189.66-23.63,1.62-25-50.76-73.71-79.36-52.17-30.61-92,5.17-214.46,1.58-55.76-1.63-118.85-3.48-133.36-35.82-14.64-32.64,36.61-59.73,42.09-112.43C2086.66,2103.28,1887.79,2048.89,1893.92,1969.29Z" transform="translate(-446 -455)"/><path class="cls-27" d="M2477.35,2305c-15.48-28.23-48.75-61.33-92.12-71.65-56.48-13.45-81.57,23.28-122.83,6.14-50.68-21.05-31-84-81.88-114.64-43.41-26.13-85.61,2.86-141.51.66,23.76,25.18,39.82,53.11,36.39,86-5.48,52.7-56.73,79.79-42.09,112.43,14.51,32.34,77.6,34.19,133.36,35.82,122.5,3.59,162.29-32.19,214.46-1.58,48.73,28.6,50.08,81,73.71,79.36,13.59-.92,26.54-19.21,37-46.57C2495.67,2359.64,2490.92,2329.77,2477.35,2305Z" transform="translate(-446 -455)"/><path class="cls-28" d="M2024.64,1845.35l7.87,3.84a79.23,79.23,0,0,0,49.24,6.66l22.36-4.17a5.74,5.74,0,0,1,5.95,8.66c-12.61,19.87-45.1,57.32-98.38,27.32Z" transform="translate(-446 -455)"/><path class="cls-29" d="M1969.2,1845.86c-27.45-10-36.8-74.92-23.22-82,7.8-4.09,14.9,15.29,43.81,22.73,22.52,5.79,36.85-1.17,46.46,10.1,4.51,5.29,7.21,13.7,7.14,21.13,0,3.83-1,8.93-3.57,19-2.29,8.89-2,8.53-2.8,11.15-1.79,6.27-5.7,17.17-14.92,31.55a82.67,82.67,0,0,0-8.52-11.59,73.28,73.28,0,0,0-14-12.34C1987,1847.36,1977.07,1848.71,1969.2,1845.86Z" transform="translate(-446 -455)"/><path class="cls-30" d="M2035,1863.89s-6,24.67-31.52,31.08c-22.88,5.74-42.31-43.48-31.41-58.74,3.63-5.1,12.72-9.65,21.2-10,5-.18,7.18,1.23,15.36.76,7.54-.43,9.26-1.83,11.93-.74,3.34,1.37,7,6.18,7.33,22.28,2.89-5.7,7.49-9,11.68-8.46a8,8,0,0,1,3.92,2C2048.41,1846.78,2045.53,1855.8,2035,1863.89Z" transform="translate(-446 -455)"/><path class="cls-6" d="M1576.46,2975.06a1.47,1.47,0,0,1-1.44-1.2l-136.72-735a1.47,1.47,0,0,1,2.89-.54L1575,2957.66V2190a1.47,1.47,0,0,1,2.94,0v783.64a1.48,1.48,0,0,1-1.34,1.47Z" transform="translate(-446 -455)"/><path class="cls-6" d="M862.85,2997.05h-.12a1.48,1.48,0,0,1-1.35-1.47V2275.85a1.47,1.47,0,0,1,2.94,0v701.91l117-704.76a1.47,1.47,0,1,1,2.9.48L864.3,2995.82A1.47,1.47,0,0,1,862.85,2997.05Z" transform="translate(-446 -455)"/><path class="cls-31" d="M2600.86,3078.87a1.46,1.46,0,0,1-1.43-1.13l-148-636a1.47,1.47,0,0,1,2.87-.67l145.43,625.06,19-625.62a1.51,1.51,0,0,1,1.52-1.43,1.46,1.46,0,0,1,1.42,1.51l-19.32,636.91a1.48,1.48,0,0,1-1.33,1.42Z" transform="translate(-446 -455)"/><path class="cls-31" d="M1787.86,3211.57h-.18a1.47,1.47,0,0,1-1.29-1.46V2575.94a1.47,1.47,0,1,1,2.94,0v622.13l180.53-728.44a1.47,1.47,0,0,1,2.86.71l-183.43,740.12A1.47,1.47,0,0,1,1787.86,3211.57Z" transform="translate(-446 -455)"/><path class="cls-15" d="M2627.62,2430.81v13.67L1786,2581.77l-930.7-302.89v-13.67C1001,2222.24,2627.62,2430.81,2627.62,2430.81Z" transform="translate(-446 -455)"/><polygon class="cls-4" points="1182.2 1739.4 2181.62 1975.81 1339.95 2113.1 409.25 1810.21 1182.2 1739.4"/><polygon class="cls-15" points="1403.83 1818.24 1578.14 1845.11 1578.14 1856.98 1505.61 1891.91 1353.7 1853.56 1403.83 1818.24"/><polygon class="cls-6" points="1399.72 1792.38 1578.14 1845.11 1505.61 1880.05 1353.7 1841.69 1399.72 1792.38"/><path class="cls-32" d="M1893.79,2385.65l-27.86-367.56c-.44-5.82-5.42-11.24-12-13.1l-476.77-134c-4.27-1.2-12.45,0-15.7,2s-6.93,1.58-6.77,5.33L1374.6,2218c.33,5.65,5,11,11.34,13.07l497.6,161.65Z" transform="translate(-446 -455)"/><path class="cls-33" d="M1883.54,2392.69l-28.86-370.64c-.46-5.81-5.43-11.22-12-13.08l-476.79-134a15,15,0,0,0-11.88,1.29,10,10,0,0,0-4.88,9.11l14.35,336.31c.25,5.78,5,11.29,11.58,13.32Z" transform="translate(-446 -455)"/><path class="cls-34" d="M1883.54,2392.69,1375,2235c-6.54-2-11.33-7.54-11.58-13.32l-4.33-101.43c150.95,96.32,341,133.52,517.92,189.14Z" transform="translate(-446 -455)"/><path class="cls-35" d="M1630.51,2404l18,11.2,90.77-40.26c.81-.36,4.33-4.74,0-6.55-23-9.55-110.52-32.18-110.52-32.18l-45.57,21.64Z" transform="translate(-446 -455)"/><path class="cls-36" d="M1630.51,2397.42l18,11.21,90.77-40.26c5.12-2.28-110.52-38.73-110.52-38.73l-45.57,21.64Z" transform="translate(-446 -455)"/><path class="cls-37" d="M1541.46,2113.64s-43.3,231.66-47.85,244.57c-4.21,11.92,118.41,50.59,147.73,57.92,2.43.61,6.07-.46,7.21-1,8.36.76-30.57-279.7-30.57-279.7l-2.85-.57Z" transform="translate(-446 -455)"/><path class="cls-38" d="M1541.46,2113.64S1490.57,2346.06,1486,2359s142,54.69,155,57c8.35.76-25.83-281-25.83-281Z" transform="translate(-446 -455)"/><path class="cls-39" d="M1994,2263.29l-4.39,38.82s177.92,76.67,328.69,0,90.55-361.46,90.55-361.46-48.27-87.79-158.82-75.5-49.21,151.48-29.72,243.6S2204.64,2286.81,1994,2263.29Z" transform="translate(-446 -455)"/><path class="cls-40" d="M1994,2263.29l-28.28-5.22a22.75,22.75,0,0,0-16.2,3.07l-31.06,16.91c-7,3.82-5.17,14.59,2.78,15.55a92.2,92.2,0,0,0,20.2.07c27.3-2.73,35.61,7.33,48.17,8.44S2018.52,2278.63,1994,2263.29Z" transform="translate(-446 -455)"/><path class="cls-41" d="M2569.68,1436.42c.29-108.57-108.75-191.63-232-185.76-67,3.19-123.54,32.32-157.95,73.9v0l-.62.78c-.59.72-1.16,1.45-1.74,2.18-1.05,1.33-2.08,2.66-3.09,4-.6.79-1.18,1.6-1.76,2.41-1,1.34-1.91,2.7-2.84,4.07-.53.79-1.06,1.57-1.58,2.36-1,1.58-2,3.18-3,4.79-.35.59-.72,1.16-1.07,1.75-1.28,2.18-2.5,4.39-3.68,6.62-.31.59-.59,1.19-.9,1.79q-1.27,2.51-2.48,5c-.39.84-.75,1.68-1.13,2.52q-1,2.25-1.94,4.54c-.36.88-.71,1.77-1.06,2.66q-.9,2.34-1.72,4.71c-.29.83-.59,1.65-.87,2.49-.66,2-1.27,4-1.85,6-.11.42-.25.83-.37,1.26-.67,2.43-1.28,4.89-1.83,7.36-.17.73-.3,1.47-.45,2.2-.37,1.77-.72,3.55-1,5.34-.15.91-.29,1.83-.43,2.75-.25,1.66-.48,3.32-.67,5-.12.94-.22,1.87-.32,2.82-.17,1.76-.31,3.54-.42,5.32-.05.83-.12,1.65-.16,2.49-.13,2.6-.2,5.21-.19,7.85.2,62.71,39,120.13,98.45,153.77q8.33,4.71,17.21,8.81c3,1.36,6,2.68,9,3.93a248.89,248.89,0,0,0,70.65,17.42h0c3.51.35,7,.61,10.49.8,1.17.07,2.34.09,3.52.14,2.31.1,4.62.2,6.92.23,1.41,0,2.8,0,4.21,0,2.06,0,4.12,0,6.17,0,1.5,0,3-.12,4.49-.18,1.95-.09,3.89-.18,5.82-.3,1.55-.11,3.08-.24,4.62-.37,1.87-.16,3.75-.33,5.61-.54,1.56-.16,3.11-.35,4.66-.55,1.83-.24,3.66-.49,5.47-.76,1.56-.24,3.11-.48,4.66-.75,1.8-.3,3.59-.64,5.37-1,1.54-.29,3.08-.59,4.6-.92l1.7-.34,0,0C2503.53,1585.57,2569.45,1519.89,2569.68,1436.42Z" transform="translate(-446 -455)"/><path class="cls-42" d="M2544.92,1434.64c-.25,107.31-107.31,183.7-227.92,172-109.82-10.66-192.13-91.85-192.45-182.36-.32-90.75,81.83-168.46,192.16-173.76C2437.94,1244.66,2545.18,1327,2544.92,1434.64Z" transform="translate(-446 -455)"/><path class="cls-6" d="M2244.75,1392.46q-11.13-.11-17.14,9t-6,25.48c0,22.72,7.74,34.37,23.23,35q9.84.39,24-4.53l0,18.47a59.81,59.81,0,0,1-25.84,4.12c-13.45-.63-23.64-5.6-30.66-14.86s-10.49-22.13-10.53-38.81q0-15.77,5.05-27.57a39.76,39.76,0,0,1,14.78-18.16q9.75-6.36,23-6.33,13.64,0,27.63,7.41l-6.49,17.88a103,103,0,0,0-10.67-5A29.29,29.29,0,0,0,2244.75,1392.46Z" transform="translate(-446 -455)"/><path class="cls-6" d="M2354.82,1453.91q0,14.56-9.89,22.52c-6.55,5.27-15.61,7.62-27.12,7.08q-15.76-.73-27.7-7.6l0-20.64a112.17,112.17,0,0,0,16.7,7.31,48.05,48.05,0,0,0,12.64,2.45q6.93.27,10.65-2.43t3.73-8.32a10,10,0,0,0-1.65-5.64,19.85,19.85,0,0,0-4.82-4.85,125.34,125.34,0,0,0-12.87-7.56c-6-3.21-10.52-6.23-13.51-9.1a33.31,33.31,0,0,1-7.13-9.87,29.77,29.77,0,0,1-2.67-13q0-13.93,8.72-21.86t24.51-8a55.05,55.05,0,0,1,14.91,2,100.44,100.44,0,0,1,15,5.65l-6.95,17.68a98.06,98.06,0,0,0-13.36-5.07,40,40,0,0,0-10.28-1.49q-6-.06-9.16,2.88a10,10,0,0,0-3.16,7.72,10.31,10.31,0,0,0,1.28,5.2,15.19,15.19,0,0,0,4.09,4.34q2.82,2.13,13.38,7.73c9.38,5,15.86,9.94,19.38,14.85S2354.82,1446.89,2354.82,1453.91Z" transform="translate(-446 -455)"/><path class="cls-6" d="M2443.71,1457q0,15.09-10.64,23.31t-29.08,7.29q-16.89-.8-29.67-7.92v-21.35a123,123,0,0,0,17.88,7.58,52.44,52.44,0,0,0,13.54,2.55q7.43.3,11.42-2.49t4-8.61a10.1,10.1,0,0,0-1.76-5.84,20.84,20.84,0,0,0-5.16-5,136,136,0,0,0-13.78-7.84c-6.45-3.33-11.26-6.46-14.46-9.43a34.65,34.65,0,0,1-7.63-10.22,30,30,0,0,1-2.84-13.43q0-14.43,9.37-22.62t26.27-8.23a61.68,61.68,0,0,1,16,2.09,110.79,110.79,0,0,1,16.11,5.86l-7.48,18.31a108.14,108.14,0,0,0-14.32-5.26,45,45,0,0,0-11-1.55q-6.41-.06-9.81,3a11.15,11.15,0,0,0-2,13.37,15.62,15.62,0,0,0,4.38,4.5q3,2.2,14.32,8,15.09,7.76,20.76,15.4T2443.71,1457Z" transform="translate(-446 -455)"/><g class="cls-43"><path class="cls-44" d="M2368.6,1565.53c-25.95-55,.27-103.63-34.73-139.15-34.6-35.1-78.07-4.2-123.25-32.12-17-10.52-35.68-30.26-49.45-70.42-23.24,28.3-36.75,63-36.62,100.42.32,90.51,82.63,171.7,192.45,182.36a243.32,243.32,0,0,0,77.07-4.65A135.28,135.28,0,0,1,2368.6,1565.53Z" transform="translate(-446 -455)"/></g><path class="cls-45" d="M2832.17,997.8c0-110.39-110.51-201.82-241.73-204.11-74.54-1.31-139.28,26.6-179.65,70.4l0-.05c-.25.28-.48.56-.73.83-.7.77-1.37,1.55-2.06,2.33-1.24,1.41-2.47,2.84-3.67,4.28-.7.86-1.4,1.72-2.09,2.59q-1.72,2.16-3.37,4.38c-.63.84-1.27,1.68-1.88,2.54-1.23,1.7-2.41,3.43-3.57,5.18-.43.63-.87,1.25-1.28,1.88q-2.29,3.56-4.4,7.2c-.38.64-.72,1.31-1.08,2-1,1.83-2,3.67-3,5.53-.46.91-.9,1.83-1.35,2.75q-1.21,2.47-2.34,5c-.43,1-.86,1.94-1.27,2.92-.73,1.72-1.42,3.46-2.09,5.2-.35.91-.71,1.82-1,2.74-.8,2.19-1.54,4.41-2.24,6.65-.14.46-.31.92-.45,1.39q-1.23,4-2.23,8.17c-.2.81-.36,1.63-.54,2.44-.45,2-.88,4-1.26,5.95-.19,1-.35,2-.52,3.07q-.47,2.78-.84,5.58c-.13,1-.27,2.09-.38,3.15-.22,2-.39,4-.54,5.95-.06.93-.15,1.85-.2,2.78-.16,2.92-.26,5.85-.26,8.81,0,70.43,46.12,134.94,115.35,171.82q9.55,5.1,19.7,9.48,5.07,2.19,10.28,4.19a282.71,282.71,0,0,0,79,17.79h0q5.79.45,11.52.67c1.29,0,2.56,0,3.85.08,2.52.07,5.05.13,7.56.13,1.54,0,3.05-.05,4.58-.08,2.24,0,4.48-.08,6.71-.17,1.63-.07,3.24-.18,4.87-.27,2.1-.13,4.2-.26,6.29-.43,1.67-.14,3.32-.3,5-.47q3-.3,6-.67c1.67-.21,3.34-.43,5-.67q3-.42,5.86-.91,2.51-.4,5-.87c1.92-.35,3.83-.74,5.73-1.13,1.63-.35,3.27-.69,4.89-1.06.6-.14,1.21-.25,1.81-.39l0,0C2766,1150.74,2832.17,1082.91,2832.17,997.8Z" transform="translate(-446 -455)"/><path class="cls-46" d="M2799.61,996.82c0,109.84-109.41,190.2-239.35,179.9-124.72-9.9-222.2-100.3-222.2-202.27s97.48-182.92,222.2-180.72C2690.2,796,2799.61,887,2799.61,996.82Z" transform="translate(-446 -455)"/><path class="cls-6" d="M2464.28,1022.44l-16.65-.92v-36l-31-1.53v35.87l-16.45-.91V936l16.45.69v32.56l31,1.46V938l16.65.7Z" transform="translate(-446 -455)"/><path class="cls-6" d="M2520.73,1025.56l-17-.94V955.21l-21.65-1V939.44l60.59,2.52v15l-21.93-1Z" transform="translate(-446 -455)"/><path class="cls-6" d="M2595.56,1029.7l-19.78-68-.51,0q1.07,20.46,1.07,27.28v39.67l-15.48-.86V942.72l23.61,1L2604,1010l.34,0,20.82-64.64,24.1,1v86.28l-16.53-.91V991c0-1.93,0-4.14.09-6.65s.31-9.17.77-20l-.51,0-21.44,66.21Z" transform="translate(-446 -455)"/><path class="cls-6" d="M2676.33,1034.17V947.52l18,.75V1020l34.68,1.84v15.29Z" transform="translate(-446 -455)"/><g class="cls-43"><path class="cls-47" d="M2616.72,1132c-28.18-58.82.31-110.39-37.73-149.1s-87.11-6.76-138.9-38.86c-19.79-12.27-41.65-34.94-57.79-80.26-27.83,30.33-44.24,68.58-44.24,110.7,0,102,97.48,192.37,222.2,202.27a269.81,269.81,0,0,0,83.84-6.24A142.22,142.22,0,0,1,2616.72,1132Z" transform="translate(-446 -455)"/></g><path class="cls-48" d="M2329.77,684.21c0-101.59-93.71-180.9-205.32-177.27-63.57,2.07-118.87,30.72-153.4,73v0c-.22.26-.42.53-.63.8-.6.74-1.18,1.49-1.76,2.24q-1.61,2-3.14,4.13c-.61.82-1.2,1.65-1.79,2.48q-1.48,2.08-2.89,4.21c-.54.81-1.09,1.61-1.61,2.43-1,1.63-2.06,3.29-3.06,5-.36.6-.74,1.19-1.09,1.8-1.31,2.26-2.57,4.54-3.77,6.86-.32.61-.61,1.24-.92,1.85-.88,1.74-1.73,3.48-2.55,5.25-.4.86-.78,1.74-1.16,2.61q-1,2.34-2,4.71c-.37.92-.74,1.84-1.09,2.77-.63,1.62-1.22,3.26-1.79,4.9-.3.86-.61,1.72-.89,2.58-.69,2.07-1.32,4.16-1.92,6.26-.12.43-.27.87-.39,1.31-.7,2.53-1.33,5.09-1.9,7.66-.17.76-.31,1.52-.47,2.29q-.59,2.76-1.07,5.56c-.17.95-.31,1.9-.46,2.86-.26,1.73-.5,3.46-.71,5.2-.12,1-.23,2-.33,2.94-.19,1.83-.33,3.68-.46,5.53,0,.86-.13,1.72-.17,2.59-.14,2.7-.22,5.42-.22,8.16,0,65.19,39.48,122.7,98.67,153.49q8.17,4.25,16.83,7.81,4.34,1.77,8.78,3.38a218.11,218.11,0,0,0,67.37,12.62h0q4.92.14,9.81.06c1.1,0,2.18-.08,3.28-.11,2.15-.06,4.3-.13,6.44-.25,1.3-.08,2.6-.19,3.9-.29,1.9-.15,3.81-.29,5.71-.48,1.38-.14,2.76-.32,4.14-.49q2.68-.32,5.36-.7c1.41-.2,2.82-.44,4.23-.67,1.72-.29,3.44-.58,5.14-.91,1.43-.27,2.84-.56,4.26-.86q2.51-.53,5-1.12c1.42-.33,2.83-.67,4.24-1q2.45-.63,4.87-1.32c1.39-.4,2.78-.79,4.16-1.21.51-.16,1-.29,1.53-.45l0,0C2273.69,828.11,2329.77,762.54,2329.77,684.21Z" transform="translate(-446 -455)"/><path class="cls-49" d="M2314.44,684.24c0,101.33-93.24,180.75-204.29,177.51-106.92-3.13-190.72-82.26-190.72-176.86s83.8-174,190.72-177.49C2221.2,503.79,2314.44,582.91,2314.44,684.24Z" transform="translate(-446 -455)"/><path class="cls-6" d="M2060,733.32,1980.76,693V680L2060,634.06v22.12l-54.85,29.3L2060,711.29Z" transform="translate(-446 -455)"/><path class="cls-6" d="M2144.38,616.15l-45.09,136.28-22.65-.24,44.73-135.73Z" transform="translate(-446 -455)"/><path class="cls-6" d="M2161.14,711.6l58-26.45-58-29.64V633l84.5,46.31v13.61l-84.5,41.1Z" transform="translate(-446 -455)"/><g class="cls-43"><path class="cls-50" d="M2158.44,817.65c-24.09-53.06.27-102.08-32.27-136.11s-74.6-2.23-119-29.58c-17-10.46-35.77-30.48-49.64-71.76-23.94,29.38-38.06,65.62-38.06,104.69,0,94.6,83.8,173.73,190.72,176.86a217.9,217.9,0,0,0,71.69-9.82A122.1,122.1,0,0,1,2158.44,817.65Z" transform="translate(-446 -455)"/></g><path class="cls-51" d="M727.05,3092.28c-34.65-2.75-79-12.38-121.52-40.19-46-30.09-106-91.93-90.33-130.9,5.84-14.55,22.66-27,37.45-25.82,21.84,1.75,24.39,32.09,62.32,65.1,7,6.09,43.25,37.63,61.26,27,9-5.28,11.61-19.92,10.15-31-4.27-32.54-44-37.53-82.19-72.76-38.73-35.71-71-98-52.55-140.13,10.6-24.21,38.65-43.32,57.08-38,7.88,2.3,12.88,8.74,36.8,60.42,19.63,42.41,24,54.78,36.66,58.8,13,4.14,33.28-1.05,41-13.89,20.06-33.43-66.61-82.8-74.48-176.36-3.53-41.93,7.81-104.07,45.78-117.39,25.67-9,62.24,4.75,75.46,28.29,11.92,21.23-2.56,37.21,6.53,84.89,2.76,14.47,8.44,44.25,20.42,45.82,14.07,1.83,29.8-36.14,33.44-45.39,27.38-69.62-4-105.42,21.8-139.21,20.14-26.36,63.95-36.94,98.66-23.63,30.36,11.65,54.66,41.94,56.28,73.33,1.65,31.94-25.21,63.73-78.93,127.32-25.48,30.16-45.75,50.53-44.6,80.5.56,14.62,6.36,35.17,16.82,37.05,23.1,4.14,34.47-88.87,89.21-103.24,28-7.35,62.84,7.1,78.14,32.36,18.75,30.95,6.19,74.81-17.36,97.87-30.73,30.1-62.24,7.23-120.06,39.55-25.65,14.34-66,44.84-60.06,70.07,2.57,11,14.08,21.74,26.71,23.17,28.32,3.21,37.67-43.19,83.2-63.6,32.8-14.69,78.16-13.1,88.93,5.39,15.21,26.12-38.81,85.41-67.53,111.61C966.8,3031,884.92,3091,727.05,3092.28Z" transform="translate(-446 -455)"/><path class="cls-52" d="M742.6,3077.4c-4.58-77.62,46.84-235.72,84.24-310.47,36.61-73.14,71.62-188.84,72-190l2.28.69c-.35,1.16-35.42,117.06-72.12,190.38-37.29,74.51-88.55,232-84,309.26Z" transform="translate(-446 -455)"/><path class="cls-53" d="M645.38,3102.4c-26.08-36.22-64.35-101.57-71.21-189-2.83-36-8.35-106.39,34.69-167.09,21.46-30.25,67-75,97.7-62.08,19.78,8.3,32.06,39.89,26.48,63.91-5.63,24.22-26.1,26.46-48.39,67.57-8.25,15.21-17.68,33.06-10.44,43.14,6,8.43,22.66,10,35.11,4.91,25.73-10.44,17.69-42.47,45.5-65.44,19.78-16.34,52.75-24,67-10.63,12.36,11.61,10.2,38.75-.71,56.84-17.48,29-48.82,20.48-69.25,52.15-9.07,14.05-15.51,35.27-7.58,43.66,9,9.56,35.65,1.29,52.7-9.28,22.51-13.95,23.34-28.8,38.16-30.66,16.54-2.08,37.21,13.67,40.45,31.09,4.52,24.4-25.41,50.72-49.12,62.15-30.35,14.64-52.9,6.05-67.72,26.05-5.44,7.34-10.42,19.32-6,26.59,6.36,10.37,29.37,6.95,44.64,4.67,37.17-5.53,47.4-19,60.72-12.46,13.49,6.63,20.44,29,14.61,44.74-3.24,8.73-13,22.25-61.22,30.72C777.74,3119.88,721,3124.05,645.38,3102.4Z" transform="translate(-446 -455)"/></g></g></g></svg>